<svg id="visual" viewBox="0 0 900 600" width="900" height="600" xmlns="http://www.w3.org/2000/svg" xmlns:xlink="http://www.w3.org/1999/xlink" version="1.1"><rect x="0" y="0" width="900" height="600" fill="#001220  "></rect><path d="M0 368L21.5 377.3C43 386.7 86 405.3 128.8 404.5C171.7 403.7 214.3 383.3 257.2 381.3C300 379.3 343 395.7 385.8 404.5C428.7 413.3 471.3 414.7 514.2 419.8C557 425 600 434 642.8 424C685.7 414 728.3 385 771.2 370C814 355 857 354 878.5 353.5L900 353L900 601L878.5 601C857 601 814 601 771.2 601C728.3 601 685.7 601 642.8 601C600 601 557 601 514.2 601C471.3 601 428.7 601 385.8 601C343 601 300 601 257.2 601C214.3 601 171.7 601 128.8 601C86 601 43 601 21.5 601L0 601Z" fill="#2072ED"></path></svg>