<svg id="visual" viewBox="0 0 900 600" width="900" height="600" xmlns="http://www.w3.org/2000/svg" xmlns:xlink="http://www.w3.org/1999/xlink" version="1.1"><rect x="0" y="0" width="900" height="600" fill="#001220  "></rect><path d="M0 398L21.5 403.7C43 409.3 86 420.7 128.8 417.8C171.7 415 214.3 398 257.2 390.8C300 383.7 343 386.3 385.8 389.7C428.7 393 471.3 397 514.2 406.8C557 416.7 600 432.3 642.8 433.3C685.7 434.3 728.3 420.7 771.2 415.5C814 410.3 857 413.7 878.5 415.3L900 417L900 601L878.5 601C857 601 814 601 771.2 601C728.3 601 685.7 601 642.8 601C600 601 557 601 514.2 601C471.3 601 428.7 601 385.8 601C343 601 300 601 257.2 601C214.3 601 171.7 601 128.8 601C86 601 43 601 21.5 601L0 601Z" fill="#2072ED"></path></svg>